<svg width="60" height="43" viewBox="0 0 60 43" fill="none" xmlns="http://www.w3.org/2000/svg">
<path d="M59.0754 15.0212C60.3083 16.2541 60.3083 18.2531 59.0754 19.486L36.6754 41.8861C35.4425 43.119 33.4435 43.119 32.2107 41.8861L18.114 27.7897C16.8811 26.5569 16.8811 24.5578 18.114 23.3249L40.5144 0.924711C41.7472 -0.308237 43.7462 -0.308237 44.979 0.924711L59.0754 15.0212Z" fill="#4A6DFF"/>
<path d="M41.8861 15.0212C43.1189 16.2541 43.1189 18.2531 41.8861 19.486L19.486 41.8861C18.2531 43.119 16.2541 43.119 15.0212 41.8861L0.924711 27.7897C-0.308237 26.5569 -0.308237 24.5578 0.924711 23.3249L23.3249 0.924711C24.5578 -0.308237 26.5568 -0.308237 27.7897 0.924711L41.8861 15.0212Z" fill="#2EB9FF"/>
</svg>
